<svg id="Layer_1" data-name="Layer 1" xmlns="http://www.w3.org/2000/svg" viewBox="0 0 491.04 121.4"><defs><style>.cls-1{fill:#fff;}</style></defs><title>Artboard 1</title><path class="cls-1" d="M107.91,54.14a75.69,75.69,0,0,0,13.43-8.06q6.32-4.74,12-10,.79-.79,2.69-2.76t4.19-4.58q2.29-2.61,4.42-5.53A31.92,31.92,0,0,0,148,17.72a9.49,9.49,0,0,0,1-4.58q-.16-2-2.69-2.76a35.68,35.68,0,0,0-8.85-1.74,53.36,53.36,0,0,0-9.16.16,91.82,91.82,0,0,0-9.16,1.42q-4.58.95-8.69,1.9a197.94,197.94,0,0,0-26.86,8.22A253.63,253.63,0,0,0,58,31.86q-10.9,5.69-21.49,12.56A104.89,104.89,0,0,0,17.39,60.3a66.32,66.32,0,0,0-5.37,7,13.47,13.47,0,0,0-2.53,8.22q0,2.69,3.56,3.87a31.82,31.82,0,0,0,9,1.34,96.35,96.35,0,0,0,12-.47q6.55-.63,12.48-1.42T57.12,77.2q4.66-.79,6.4-.95,2.84-.31,7.43-.87a80,80,0,0,1,9.56-.55,63.83,63.83,0,0,1,9.64.71,19.07,19.07,0,0,1,7.66,2.69,7.79,7.79,0,0,1,3.56,5.53q.55,3.55-2.45,9.08a38.48,38.48,0,0,1-9.56,11.45,63.25,63.25,0,0,1-13,8.14,79.14,79.14,0,0,1-14.61,5.21,135.52,135.52,0,0,1-14.53,2.84q-3,.47-7.27.79a44.39,44.39,0,0,1-8.37-.16A22.6,22.6,0,0,1,24,118.91a9.17,9.17,0,0,1-4.74-5.53,6.42,6.42,0,0,1,.24-4.74q1-2.37,4-2.21a2.84,2.84,0,0,1,1.82.71,13.4,13.4,0,0,1,1.5,1.42,4.45,4.45,0,0,1,.87,1.34c.16.42.08.63-.24.63a4.86,4.86,0,0,0,3.24,1.9,28.55,28.55,0,0,0,4.9.55q2.61.08,5.06-.08t3.71-.32a87.86,87.86,0,0,0,24.49-6,74.69,74.69,0,0,0,6.87-3.24,43.31,43.31,0,0,0,6.4-4.19,40.57,40.57,0,0,0,5.53-5.29,26.65,26.65,0,0,0,4.11-6.4q1.42-1.9.4-2.76a6.12,6.12,0,0,0-3-1.19,20.64,20.64,0,0,0-4-.24q-2.05.08-2.84.08-7.43.32-14.69,1.26T53.09,86.68q-6.32.79-12.64,1.5t-12.64,1q-2.84.16-6.16.16a43.57,43.57,0,0,1-6.48-.47A26.63,26.63,0,0,1,9.1,87.23,15.28,15.28,0,0,1,4,83.84,11.44,11.44,0,0,1,0,75.94a19.37,19.37,0,0,1,1.82-8.69,36.24,36.24,0,0,1,5.61-8.69,83.84,83.84,0,0,1,7.66-7.9q4-3.63,7.82-6.48t6-4.42a213.56,213.56,0,0,1,23.3-14Q64.31,19.54,77,14.32,90.22,9,104.28,4.77A112.72,112.72,0,0,1,132.88.1q2.52-.16,5.61-.08a45,45,0,0,1,6,.55,24.24,24.24,0,0,1,5.69,1.66,13.49,13.49,0,0,1,4.66,3.24,11.71,11.71,0,0,1,3.08,6.64,16.48,16.48,0,0,1-.87,7.27,33.28,33.28,0,0,1-3.71,7.35,63.54,63.54,0,0,1-5.29,7q-2.84,3.24-5.69,6t-4.9,4.66q-5.37,4.74-11.14,9a82,82,0,0,1-12.09,7.43A34.73,34.73,0,0,1,111,62.19a3.9,3.9,0,0,1-3.4-.32,3.47,3.47,0,0,1-1.74-1.74,5.75,5.75,0,0,1-.47-2.29,4.14,4.14,0,0,1,.63-2.21A3.63,3.63,0,0,1,107.91,54.14Z"/></svg>