<svg id="Layer_1" data-name="Layer 1" xmlns="http://www.w3.org/2000/svg" viewBox="0 0 491.04 121.4"><defs><style>.cls-1{fill:#fff;}</style></defs><title>Artboard 1</title><path class="cls-1" d="M107.91,54.14a75.69,75.69,0,0,0,13.43-8.06q6.32-4.74,12-10,.79-.79,2.69-2.76t4.19-4.58q2.29-2.61,4.42-5.53A31.92,31.92,0,0,0,148,17.72a9.49,9.49,0,0,0,1-4.58q-.16-2-2.69-2.76a35.68,35.68,0,0,0-8.85-1.74,53.36,53.36,0,0,0-9.16.16,91.82,91.82,0,0,0-9.16,1.42q-4.58.95-8.69,1.9a197.94,197.94,0,0,0-26.86,8.22A253.63,253.63,0,0,0,58,31.86q-10.9,5.69-21.49,12.56A104.89,104.89,0,0,0,17.39,60.3a66.32,66.32,0,0,0-5.37,7,13.47,13.47,0,0,0-2.53,8.22q0,2.69,3.56,3.87a31.82,31.82,0,0,0,9,1.34,96.35,96.35,0,0,0,12-.47q6.55-.63,12.48-1.42T57.12,77.2q4.66-.79,6.4-.95,2.84-.31,7.43-.87a80,80,0,0,1,9.56-.55,63.83,63.83,0,0,1,9.64.71,19.07,19.07,0,0,1,7.66,2.69,7.79,7.79,0,0,1,3.56,5.53q.55,3.55-2.45,9.08a38.48,38.48,0,0,1-9.56,11.45,63.25,63.25,0,0,1-13,8.14,79.14,79.14,0,0,1-14.61,5.21,135.52,135.52,0,0,1-14.53,2.84q-3,.47-7.27.79a44.39,44.39,0,0,1-8.37-.16A22.6,22.6,0,0,1,24,118.91a9.17,9.17,0,0,1-4.74-5.53,6.42,6.42,0,0,1,.24-4.74q1-2.37,4-2.21a2.84,2.84,0,0,1,1.82.71,13.4,13.4,0,0,1,1.5,1.42,4.45,4.45,0,0,1,.87,1.34c.16.42.08.63-.24.63a4.86,4.86,0,0,0,3.24,1.9,28.55,28.55,0,0,0,4.9.55q2.61.08,5.06-.08t3.71-.32a87.86,87.86,0,0,0,24.49-6,74.69,74.69,0,0,0,6.87-3.24,43.31,43.31,0,0,0,6.4-4.19,40.57,40.57,0,0,0,5.53-5.29,26.65,26.65,0,0,0,4.11-6.4q1.42-1.9.4-2.76a6.12,6.12,0,0,0-3-1.19,20.64,20.64,0,0,0-4-.24q-2.05.08-2.84.08-7.43.32-14.69,1.26T53.09,86.68q-6.32.79-12.64,1.5t-12.64,1q-2.84.16-6.16.16a43.57,43.57,0,0,1-6.48-.47A26.63,26.63,0,0,1,9.1,87.23,15.28,15.28,0,0,1,4,83.84,11.44,11.44,0,0,1,0,75.94a19.37,19.37,0,0,1,1.82-8.69,36.24,36.24,0,0,1,5.61-8.69,83.84,83.84,0,0,1,7.66-7.9q4-3.63,7.82-6.48t6-4.42a213.56,213.56,0,0,1,23.3-14Q64.31,19.54,77,14.32,90.22,9,104.28,4.77A112.72,112.72,0,0,1,132.88.1q2.52-.16,5.61-.08a45,45,0,0,1,6,.55,24.24,24.24,0,0,1,5.69,1.66,13.49,13.49,0,0,1,4.66,3.24,11.71,11.71,0,0,1,3.08,6.64,16.48,16.48,0,0,1-.87,7.27,33.28,33.28,0,0,1-3.71,7.35,63.54,63.54,0,0,1-5.29,7q-2.84,3.24-5.69,6t-4.9,4.66q-5.37,4.74-11.14,9a82,82,0,0,1-12.09,7.43A34.73,34.73,0,0,1,111,62.19a3.9,3.9,0,0,1-3.4-.32,3.47,3.47,0,0,1-1.74-1.74,5.75,5.75,0,0,1-.47-2.29,4.14,4.14,0,0,1,.63-2.21A3.63,3.63,0,0,1,107.91,54.14Z"/><path class="cls-1" d="M186.68,82.18q-9.22.18-18.8.45a67.18,67.18,0,0,1-18.8-2.11,3.12,3.12,0,0,1-1.45-.37c-.72,2.07-1.78,3-3.16,4.91a24.9,24.9,0,0,1-4.61,4.79,16.77,16.77,0,0,1-5.51,2.89,10.87,10.87,0,0,1-5.87.18,6.84,6.84,0,0,1-4.07-2.71,9,9,0,0,1-1.54-4.52,13.51,13.51,0,0,1,.63-5.09c.54-1.71,1.3-2.23,2.26-3.58a14.44,14.44,0,0,1,6-4.41c2.41-1,4.82.9,7.23,1.62a5.34,5.34,0,0,1,2.89-4,5,5,0,0,1,5.42.36c1.81,1.08,3.76-.1,5.87.44a33.57,33.57,0,0,0,6.6,1q3.43.18,6.78.09t6.42-.09a72,72,0,0,0,7.77-.45,18.44,18.44,0,0,1,7.59.64,4.83,4.83,0,0,1,2.8,2.4,5.28,5.28,0,0,1-1,6.26A4.6,4.6,0,0,1,186.68,82.18Zm-55,2.35c.36-.36,2.08.46,3.17.46V82.36c-.24.24-1.6-.49-2.08-.19S131.88,83.93,131.64,84.53Z"/><path class="cls-1" d="M187.22,72.24q3.61.18,4.7,2.17a7.53,7.53,0,0,1,.72,4.7,36.88,36.88,0,0,0,7.77-9,22.57,22.57,0,0,0,1.36-2.35,15.31,15.31,0,0,1,1.45-2.35,6.42,6.42,0,0,1,1.9-1.72,4.35,4.35,0,0,1,2.71-.45q2.71.36,3.43,2.35a12.11,12.11,0,0,1,.72,4.16q.9,1.81,4.7,2.44a57.9,57.9,0,0,0,8.4.72q4.61.09,8.77-.18t5.78-.27a29,29,0,0,0,3.71-.27q2.08-.27,4.25-.45a19.12,19.12,0,0,1,4.16.09,7.25,7.25,0,0,1,3.43,1.36,5,5,0,0,1,1.9,2.62,4.61,4.61,0,0,1-.09,3,5.81,5.81,0,0,1-1.72,2.44,4.46,4.46,0,0,1-3,1,19.18,19.18,0,0,1-6.24.45,44,44,0,0,0-6.24-.09h-9.76q-4.88,0-9.76-.36a56.58,56.58,0,0,1-7.23-1.27A19.68,19.68,0,0,1,206.38,78q-2,2.35-4.16,4.61t-4.34,4.25q-2.17,2-4.52,4.07a12.36,12.36,0,0,1-5.42,2.8,6.19,6.19,0,0,1-6.51-1.63,5.54,5.54,0,0,1-1.45-3,8.25,8.25,0,0,1,.27-3.16q.45-1.63,1.08-3.25t1.17-3.07a5.84,5.84,0,0,1,.36-4.88A4.46,4.46,0,0,1,187.22,72.24Z"/><path class="cls-1" d="M316.46,23.44q-5.6,4.7-11,9.31t-10.66,9.49a17.18,17.18,0,0,1,5.06.72,11,11,0,0,1,3.89,1.81,6.88,6.88,0,0,1,2.44,3.8,4.33,4.33,0,0,1-.54,3.71,5.89,5.89,0,0,1-2.71,2.17,5.28,5.28,0,0,1-3.34.18,4,4,0,0,1-2.62-2.26A25.6,25.6,0,0,0,291.52,51a40.15,40.15,0,0,0-5.78-.45l-1.81,1.63q-7.41,7-15.63,15.27a67.94,67.94,0,0,0-12.92,17.62,62.6,62.6,0,0,0,12.38-4.25q6.05-2.8,12.2-5,3.61-1.26,7.32-2.26a45.94,45.94,0,0,1,7.5-1.36,6.42,6.42,0,0,1,1.81.18,3.13,3.13,0,0,1,1.27-.18,6.62,6.62,0,0,1,3.62,1.17,4.93,4.93,0,0,1,1.72,2.53,8.78,8.78,0,0,1,.27,3.34q-.18,1.81-.54,3.61a20.32,20.32,0,0,1,3.16-.45,10.16,10.16,0,0,0,2.62-.45q4.52-1.08,9.22-2.71,6-2,12-3.89a78.57,78.57,0,0,1,12.38-2.8,11.07,11.07,0,0,1,3.89.36,7.85,7.85,0,0,1,3.43,1.81,4.29,4.29,0,0,1,1.45,3q.09,1.72-2.26,3.52a4.44,4.44,0,0,1-2.62.9,23,23,0,0,0-2.8.18q-2.71.36-5.42.9t-5.24,1.27Q327.3,86,322,87.6T311.4,91q-3.08,1.08-7.14,2.44a11.94,11.94,0,0,1-7.5.27q-3.8-1.45-4.34-4.52a16,16,0,0,1,.18-6.33,2,2,0,0,1-.9.18,54.35,54.35,0,0,0-9.58,2.71q-4.7,1.81-9.4,3.8T262.6,93.75a26.61,26.61,0,0,1-10.84,2q-6-.36-7.23-3.25t.45-7.32a46.07,46.07,0,0,1,5.33-9.58A123.33,123.33,0,0,1,258,65.73q4.07-4.7,7.5-8.22T270,52.9l2.53-2.53h-10.3q-5.06,0-10.3.18-10.48.36-20.88,1t-20.88,1.72q-3.8.54-7.5,1a68.26,68.26,0,0,0-7.5,1.36,17.2,17.2,0,0,0-2,.54,2.8,2.8,0,0,1-2,0,2.5,2.5,0,0,1-1.9-2.62,2.46,2.46,0,0,1,1.9-2.44A243.23,243.23,0,0,1,235.85,44q23-1.53,45.37-1.9,4.7-4.34,9.4-8.5t9.58-8.31q2.35-2.17,5.51-5.51a14.39,14.39,0,0,1,6.42-4.25,4.35,4.35,0,0,1,3.16.09,4.44,4.44,0,0,1,2.08,2,5.05,5.05,0,0,1,.54,3A4.77,4.77,0,0,1,316.46,23.44Zm-18.8,29.28a.36.36,0,0,1-.27-.09.38.38,0,0,0-.27-.09A.72.72,0,0,0,297.66,52.72Zm49-11.58a3.77,3.77,0,0,1-.29,1.65,1.67,1.67,0,0,1-.88.83,2.64,2.64,0,0,1-1.36.15,12.65,12.65,0,0,1-1.56-.29,4.39,4.39,0,0,1-1.36,3.21,6.88,6.88,0,0,1-3,1.56,18,18,0,0,1-4.33.68,24.94,24.94,0,0,1-4.67-.24,13.42,13.42,0,0,1-4.09-1.22,5.56,5.56,0,0,1-2.53-2.34,4.13,4.13,0,0,1,.1-3.6A5.59,5.59,0,0,1,325,38.65a11.92,11.92,0,0,1,3.6-1.51,21.46,21.46,0,0,1,4.09-.58,36.51,36.51,0,0,1,3.75,0,25.22,25.22,0,0,1,2.68.19,20.08,20.08,0,0,1,3.36.68,9.45,9.45,0,0,1,2.87,1.36A3,3,0,0,1,346.65,41.13ZM339.06,44a1.57,1.57,0,0,0-.49-1.85.77.77,0,0,0-.29-.1.28.28,0,0,1-.19-.1q-1.07-.19-2.68-.44a22.21,22.21,0,0,0-3.31-.24,11,11,0,0,0-3.16.44,3.85,3.85,0,0,0-2.14,1.41.28.28,0,0,1-.1.19q.19.78,1.41,1.22a12.88,12.88,0,0,0,2.68.63,21.15,21.15,0,0,0,2.82.19h1.85q1-.19,1.9-.44A4.18,4.18,0,0,0,339.06,44Z"/><path class="cls-1" d="M344.83,72.24a8.86,8.86,0,0,1,2.8.45,4.92,4.92,0,0,1,2.26,1.54,5.56,5.56,0,0,1,1.54,3.71,7.69,7.69,0,0,1-1,3.34q4.7-.9,9.4-2.17l9.4-2.53q2.17-.54,4.7-1.27a37.77,37.77,0,0,1,5.15-1.08,30.72,30.72,0,0,1,5.24-.27,11.5,11.5,0,0,1,4.79,1.17q3.07,1.45,3.61,3.43a6.28,6.28,0,0,1-.36,4.16q2.53-.72,5.06-1.36t5.06-1.54q4.88-1.44,9.85-3t10-3q2.35-.72,5.51-1.54a6.44,6.44,0,0,1,5.51.81,4.57,4.57,0,0,1,1.81,2.62,6,6,0,0,1-.09,3.07,4.92,4.92,0,0,1-1.72,2.53,4.55,4.55,0,0,1-2.89,1,49.53,49.53,0,0,0-13.92,3.25q-7,2.71-13.56,4.7-2,.54-4.61,1.45t-5.33,1.63a28.56,28.56,0,0,1-5.42.9,10.73,10.73,0,0,1-4.88-.72,6.29,6.29,0,0,1-3.53-3.71,8.49,8.49,0,0,1-.27-5.33,55.36,55.36,0,0,0-7.77,1.27l-7.59,1.81q-2.53.72-5.33,1.63L352.7,91a48.33,48.33,0,0,1-5.6,1.45,21.51,21.51,0,0,1-5.51.36,8.69,8.69,0,0,1-3.25-1.08,5.37,5.37,0,0,1-2.53-3.07,5.51,5.51,0,0,1,.27-3.25,14.78,14.78,0,0,1,1.81-3.25q1.18-1.63,2.26-3.07a5.9,5.9,0,0,1,.45-4.61A4.36,4.36,0,0,1,344.83,72.24Z"/><path class="cls-1" d="M486,82.18q-9.22.18-18.8.45a67.18,67.18,0,0,1-18.8-2.11,3.12,3.12,0,0,1-1.45-.37,22.16,22.16,0,0,1-3.16,5.91,24.9,24.9,0,0,1-4.61,4.79,16.77,16.77,0,0,1-5.51,2.89,10.87,10.87,0,0,1-5.87.18,6.84,6.84,0,0,1-4.07-2.71,9,9,0,0,1-1.54-4.52,13.51,13.51,0,0,1,.63-5.09A16.37,16.37,0,0,1,425.09,77a14.44,14.44,0,0,1,6-4.41,10.61,10.61,0,0,1,7.23-.38,5.34,5.34,0,0,1,2.89-4,5,5,0,0,1,5.42.36,22,22,0,0,0,5.87,2.44,33.57,33.57,0,0,0,6.6,1q3.43.18,6.78.09t6.42-.09a72,72,0,0,0,7.77-.45,18.44,18.44,0,0,1,7.59.64,4.83,4.83,0,0,1,2.8,2.4,5.28,5.28,0,0,1-1,6.26A4.6,4.6,0,0,1,486,82.18Zm-54,2.35a3.14,3.14,0,0,1,2.17-.54l1-3.63A26,26,0,0,1,433,83.17,2.73,2.73,0,0,0,432,84.53Z"/></svg>