<?xml version="1.0" encoding="utf-8"?>
<!-- Generator: Adobe Illustrator 21.0.1, SVG Export Plug-In . SVG Version: 6.00 Build 0)  -->
<svg version="1.1" id="Layer_1" xmlns="http://www.w3.org/2000/svg" xmlns:xlink="http://www.w3.org/1999/xlink" x="0px" y="0px"
	 viewBox="0 0 356 498.5" style="enable-background:new 0 0 356 498.5;" xml:space="preserve">
<style type="text/css">
	.st0{fill:#FFFFFF;}
</style>
<title>marker-brandmark</title>
<path class="st0" d="M178,1.5C80.2,1.5,0,81.6,0,179.5c0,94.6,162,306.3,168.4,314.3c1.6,3.2,6.4,4.8,9.6,4.8s8-1.6,9.6-4.8
	C194,484.1,356,274,356,179.5C356,81.6,275.8,1.5,178,1.5z M272.6,179.5c0,52.9-43.3,94.6-94.6,94.6c-52.9,0-94.6-43.3-94.6-94.6
	c0-52.9,43.3-94.6,94.6-94.6C230.9,84.8,272.6,126.5,272.6,179.5L272.6,179.5z"/>
</svg>
